<svg id="visual" viewBox="0 0 900 600" width="900" height="600" xmlns="http://www.w3.org/2000/svg" xmlns:xlink="http://www.w3.org/1999/xlink" version="1.1"><rect x="0" y="0" width="900" height="600" fill="#001220"></rect><defs><linearGradient id="grad1_0" x1="33.3%" y1="0%" x2="100%" y2="100%"><stop offset="20%" stop-color="#009473" stop-opacity="1"></stop><stop offset="80%" stop-color="#009473" stop-opacity="1"></stop></linearGradient></defs><defs><linearGradient id="grad1_1" x1="33.3%" y1="0%" x2="100%" y2="100%"><stop offset="20%" stop-color="#009473" stop-opacity="1"></stop><stop offset="80%" stop-color="#008172" stop-opacity="1"></stop></linearGradient></defs><defs><linearGradient id="grad1_2" x1="33.3%" y1="0%" x2="100%" y2="100%"><stop offset="20%" stop-color="#006d6d" stop-opacity="1"></stop><stop offset="80%" stop-color="#008172" stop-opacity="1"></stop></linearGradient></defs><defs><linearGradient id="grad1_3" x1="33.3%" y1="0%" x2="100%" y2="100%"><stop offset="20%" stop-color="#006d6d" stop-opacity="1"></stop><stop offset="80%" stop-color="#005964" stop-opacity="1"></stop></linearGradient></defs><defs><linearGradient id="grad1_4" x1="33.3%" y1="0%" x2="100%" y2="100%"><stop offset="20%" stop-color="#004657" stop-opacity="1"></stop><stop offset="80%" stop-color="#005964" stop-opacity="1"></stop></linearGradient></defs><defs><linearGradient id="grad1_5" x1="33.3%" y1="0%" x2="100%" y2="100%"><stop offset="20%" stop-color="#004657" stop-opacity="1"></stop><stop offset="80%" stop-color="#003446" stop-opacity="1"></stop></linearGradient></defs><defs><linearGradient id="grad1_6" x1="33.3%" y1="0%" x2="100%" y2="100%"><stop offset="20%" stop-color="#002334" stop-opacity="1"></stop><stop offset="80%" stop-color="#003446" stop-opacity="1"></stop></linearGradient></defs><defs><linearGradient id="grad1_7" x1="33.3%" y1="0%" x2="100%" y2="100%"><stop offset="20%" stop-color="#002334" stop-opacity="1"></stop><stop offset="80%" stop-color="#001220" stop-opacity="1"></stop></linearGradient></defs><defs><linearGradient id="grad2_0" x1="0%" y1="0%" x2="66.7%" y2="100%"><stop offset="20%" stop-color="#009473" stop-opacity="1"></stop><stop offset="80%" stop-color="#009473" stop-opacity="1"></stop></linearGradient></defs><defs><linearGradient id="grad2_1" x1="0%" y1="0%" x2="66.7%" y2="100%"><stop offset="20%" stop-color="#008172" stop-opacity="1"></stop><stop offset="80%" stop-color="#009473" stop-opacity="1"></stop></linearGradient></defs><defs><linearGradient id="grad2_2" x1="0%" y1="0%" x2="66.7%" y2="100%"><stop offset="20%" stop-color="#008172" stop-opacity="1"></stop><stop offset="80%" stop-color="#006d6d" stop-opacity="1"></stop></linearGradient></defs><defs><linearGradient id="grad2_3" x1="0%" y1="0%" x2="66.7%" y2="100%"><stop offset="20%" stop-color="#005964" stop-opacity="1"></stop><stop offset="80%" stop-color="#006d6d" stop-opacity="1"></stop></linearGradient></defs><defs><linearGradient id="grad2_4" x1="0%" y1="0%" x2="66.7%" y2="100%"><stop offset="20%" stop-color="#005964" stop-opacity="1"></stop><stop offset="80%" stop-color="#004657" stop-opacity="1"></stop></linearGradient></defs><defs><linearGradient id="grad2_5" x1="0%" y1="0%" x2="66.7%" y2="100%"><stop offset="20%" stop-color="#003446" stop-opacity="1"></stop><stop offset="80%" stop-color="#004657" stop-opacity="1"></stop></linearGradient></defs><defs><linearGradient id="grad2_6" x1="0%" y1="0%" x2="66.7%" y2="100%"><stop offset="20%" stop-color="#003446" stop-opacity="1"></stop><stop offset="80%" stop-color="#002334" stop-opacity="1"></stop></linearGradient></defs><defs><linearGradient id="grad2_7" x1="0%" y1="0%" x2="66.7%" y2="100%"><stop offset="20%" stop-color="#001220" stop-opacity="1"></stop><stop offset="80%" stop-color="#002334" stop-opacity="1"></stop></linearGradient></defs><g transform="translate(900, 0)"><path d="M0 486.7C-46.7 494.3 -93.5 501.8 -126 470.2C-158.5 438.5 -176.7 367.8 -181 313.5C-185.3 259.2 -175.7 221.4 -217.1 217.1C-258.5 212.8 -350.9 241.9 -400.1 231C-449.3 220.1 -455.4 169.1 -462.7 124C-469.9 78.8 -478.3 39.4 -486.7 0L0 0Z" fill="#011a2a"></path><path d="M0 425.9C-40.9 432.5 -81.8 439.1 -110.2 411.4C-138.7 383.7 -154.6 321.8 -158.4 274.3C-162.1 226.8 -153.7 193.7 -189.9 189.9C-226.2 186.2 -307 211.7 -350.1 202.1C-393.2 192.6 -398.5 148 -404.8 108.5C-411.2 68.9 -418.5 34.5 -425.9 0L0 0Z" fill="#002b3d"></path><path d="M0 365.1C-35.1 370.7 -70.1 376.3 -94.5 352.6C-118.9 328.9 -132.5 275.8 -135.7 235.1C-139 194.4 -131.8 166.1 -162.8 162.8C-193.9 159.6 -263.1 181.4 -300.1 173.3C-337 165.1 -341.6 126.9 -347 93C-352.4 59.1 -358.8 29.5 -365.1 0L0 0Z" fill="#003d4f"></path><path d="M0 304.2C-29.2 308.9 -58.4 313.6 -78.7 293.9C-99 274.1 -110.4 229.9 -113.1 195.9C-115.8 162 -109.8 138.4 -135.7 135.7C-161.5 133 -219.3 151.2 -250.1 144.4C-280.8 137.6 -284.6 105.7 -289.2 77.5C-293.7 49.2 -299 24.6 -304.2 0L0 0Z" fill="#00505e"></path><path d="M0 243.4C-23.4 247.1 -46.7 250.9 -63 235.1C-79.2 219.3 -88.3 183.9 -90.5 156.8C-92.7 129.6 -87.8 110.7 -108.5 108.5C-129.2 106.4 -175.4 121 -200.1 115.5C-224.7 110 -227.7 84.6 -231.3 62C-235 39.4 -239.2 19.7 -243.4 0L0 0Z" fill="#006369"></path><path d="M0 182.5C-17.5 185.4 -35.1 188.2 -47.2 176.3C-59.4 164.5 -66.3 137.9 -67.9 117.6C-69.5 97.2 -65.9 83 -81.4 81.4C-96.9 79.8 -131.6 90.7 -150 86.6C-168.5 82.5 -170.8 63.4 -173.5 46.5C-176.2 29.5 -179.4 14.8 -182.5 0L0 0Z" fill="#007770"></path><path d="M0 121.7C-11.7 123.6 -23.4 125.4 -31.5 117.5C-39.6 109.6 -44.2 91.9 -45.2 78.4C-46.3 64.8 -43.9 55.4 -54.3 54.3C-64.6 53.2 -87.7 60.5 -100 57.8C-112.3 55 -113.9 42.3 -115.7 31C-117.5 19.7 -119.6 9.8 -121.7 0L0 0Z" fill="#008a73"></path><path d="M0 60.8C-5.8 61.8 -11.7 62.7 -15.7 58.8C-19.8 54.8 -22.1 46 -22.6 39.2C-23.2 32.4 -22 27.7 -27.1 27.1C-32.3 26.6 -43.9 30.2 -50 28.9C-56.2 27.5 -56.9 21.1 -57.8 15.5C-58.7 9.8 -59.8 4.9 -60.8 0L0 0Z" fill="#009473"></path></g><g transform="translate(0, 600)"><path d="M0 -486.7C21.7 -406.3 43.4 -325.9 84.4 -314.9C125.3 -303.9 185.5 -362.4 196.5 -340.3C207.5 -318.3 169.2 -215.8 181 -181C192.8 -146.2 254.7 -179.2 317 -183C379.2 -186.8 441.8 -161.3 470.2 -126C498.5 -90.6 492.6 -45.3 486.7 0L0 0Z" fill="#011a2a"></path><path d="M0 -425.9C19 -355.5 38 -285.1 73.8 -275.5C109.7 -265.9 162.3 -317.1 171.9 -297.8C181.5 -278.5 148.1 -188.8 158.4 -158.4C168.7 -128 222.9 -156.8 277.3 -160.1C331.8 -163.4 386.6 -141.2 411.4 -110.2C436.2 -79.3 431.1 -39.6 425.9 0L0 0Z" fill="#002b3d"></path><path d="M0 -365.1C16.3 -304.7 32.6 -244.4 63.3 -236.2C94 -227.9 139.1 -271.8 147.4 -255.3C155.6 -238.7 126.9 -161.8 135.8 -135.8C144.6 -109.7 191 -134.4 237.7 -137.3C284.4 -140.1 331.4 -121 352.6 -94.5C373.9 -68 369.5 -34 365.1 0L0 0Z" fill="#003d4f"></path><path d="M0 -304.2C13.6 -253.9 27.1 -203.7 52.7 -196.8C78.3 -189.9 116 -226.5 122.8 -212.7C129.7 -198.9 105.8 -134.9 113.1 -113.1C120.5 -91.4 159.2 -112 198.1 -114.4C237 -116.7 276.1 -100.8 293.9 -78.7C311.6 -56.6 307.9 -28.3 304.2 0L0 0Z" fill="#00505e"></path><path d="M0 -243.4C10.9 -203.2 21.7 -162.9 42.2 -157.4C62.7 -152 92.8 -181.2 98.2 -170.2C103.7 -159.2 84.6 -107.9 90.5 -90.5C96.4 -73.1 127.4 -89.6 158.5 -91.5C189.6 -93.4 220.9 -80.7 235.1 -63C249.3 -45.3 246.3 -22.7 243.4 0L0 0Z" fill="#006369"></path><path d="M0 -182.5C8.1 -152.4 16.3 -122.2 31.6 -118.1C47 -114 69.6 -135.9 73.7 -127.6C77.8 -119.4 63.5 -80.9 67.9 -67.9C72.3 -54.8 95.5 -67.2 118.9 -68.6C142.2 -70 165.7 -60.5 176.3 -47.2C186.9 -34 184.7 -17 182.5 0L0 0Z" fill="#007770"></path><path d="M0 -121.7C5.4 -101.6 10.9 -81.5 21.1 -78.7C31.3 -76 46.4 -90.6 49.1 -85.1C51.9 -79.6 42.3 -53.9 45.3 -45.3C48.2 -36.6 63.7 -44.8 79.2 -45.8C94.8 -46.7 110.5 -40.3 117.5 -31.5C124.6 -22.7 123.2 -11.3 121.7 0L0 0Z" fill="#008a73"></path><path d="M0 -60.8C2.7 -50.8 5.4 -40.7 10.5 -39.4C15.7 -38 23.2 -45.3 24.6 -42.5C25.9 -39.8 21.2 -27 22.6 -22.6C24.1 -18.3 31.8 -22.4 39.6 -22.9C47.4 -23.3 55.2 -20.2 58.8 -15.7C62.3 -11.3 61.6 -5.7 60.8 0L0 0Z" fill="#009473"></path></g></svg>