<svg id="visual" viewBox="0 0 900 600" width="900" height="600" xmlns="http://www.w3.org/2000/svg" xmlns:xlink="http://www.w3.org/1999/xlink" version="1.1"><path d="M0 414L21.5 418C43 422 86 430 128.8 433.5C171.7 437 214.3 436 257.2 431.5C300 427 343 419 385.8 410C428.7 401 471.3 391 514.2 390C557 389 600 397 642.8 404.5C685.7 412 728.3 419 771.2 415.2C814 411.3 857 396.7 878.5 389.3L900 382L900 601L878.5 601C857 601 814 601 771.2 601C728.3 601 685.7 601 642.8 601C600 601 557 601 514.2 601C471.3 601 428.7 601 385.8 601C343 601 300 601 257.2 601C214.3 601 171.7 601 128.8 601C86 601 43 601 21.5 601L0 601Z" fill="#fa7268"></path><path d="M0 411L21.5 412.8C43 414.7 86 418.3 128.8 417.5C171.7 416.7 214.3 411.3 257.2 406.5C300 401.7 343 397.3 385.8 398.2C428.7 399 471.3 405 514.2 408.3C557 411.7 600 412.3 642.8 422.8C685.7 433.3 728.3 453.7 771.2 461.5C814 469.3 857 464.7 878.5 462.3L900 460L900 601L878.5 601C857 601 814 601 771.2 601C728.3 601 685.7 601 642.8 601C600 601 557 601 514.2 601C471.3 601 428.7 601 385.8 601C343 601 300 601 257.2 601C214.3 601 171.7 601 128.8 601C86 601 43 601 21.5 601L0 601Z" fill="#ef5f67"></path><path d="M0 461L21.5 467.7C43 474.3 86 487.7 128.8 496C171.7 504.3 214.3 507.7 257.2 508.3C300 509 343 507 385.8 506.3C428.7 505.7 471.3 506.3 514.2 500C557 493.7 600 480.3 642.8 471.8C685.7 463.3 728.3 459.7 771.2 459.5C814 459.3 857 462.7 878.5 464.3L900 466L900 601L878.5 601C857 601 814 601 771.2 601C728.3 601 685.7 601 642.8 601C600 601 557 601 514.2 601C471.3 601 428.7 601 385.8 601C343 601 300 601 257.2 601C214.3 601 171.7 601 128.8 601C86 601 43 601 21.5 601L0 601Z" fill="#e34c67"></path><path d="M0 492L21.5 497.2C43 502.3 86 512.7 128.8 520.7C171.7 528.7 214.3 534.3 257.2 534.5C300 534.7 343 529.3 385.8 529.7C428.7 530 471.3 536 514.2 530.5C557 525 600 508 642.8 501C685.7 494 728.3 497 771.2 496C814 495 857 490 878.5 487.5L900 485L900 601L878.5 601C857 601 814 601 771.2 601C728.3 601 685.7 601 642.8 601C600 601 557 601 514.2 601C471.3 601 428.7 601 385.8 601C343 601 300 601 257.2 601C214.3 601 171.7 601 128.8 601C86 601 43 601 21.5 601L0 601Z" fill="#d53867"></path><path d="M0 556L21.5 553.5C43 551 86 546 128.8 545.5C171.7 545 214.3 549 257.2 553C300 557 343 561 385.8 559.8C428.7 558.7 471.3 552.3 514.2 549.8C557 547.3 600 548.7 642.8 546.7C685.7 544.7 728.3 539.3 771.2 538.5C814 537.7 857 541.3 878.5 543.2L900 545L900 601L878.5 601C857 601 814 601 771.2 601C728.3 601 685.7 601 642.8 601C600 601 557 601 514.2 601C471.3 601 428.7 601 385.8 601C343 601 300 601 257.2 601C214.3 601 171.7 601 128.8 601C86 601 43 601 21.5 601L0 601Z" fill="#c62368"></path></svg>