<svg id="visual" viewBox="0 0 900 600" width="900" height="600" xmlns="http://www.w3.org/2000/svg" xmlns:xlink="http://www.w3.org/1999/xlink" version="1.1"><g><g transform="translate(505 490)"><path d="M0 -91.7L79.4 -45.8L79.4 45.8L0 91.7L-79.4 45.8L-79.4 -45.8Z" fill="none" stroke="#297EA6" stroke-width="2"></path></g><g transform="translate(895 258)"><path d="M0 -60L52 -30L52 30L0 60L-52 30L-52 -30Z" fill="none" stroke="#297EA6" stroke-width="2"></path></g><g transform="translate(169 406)"><path d="M0 -32L27.7 -16L27.7 16L0 32L-27.7 16L-27.7 -16Z" fill="none" stroke="#297EA6" stroke-width="2"></path></g><g transform="translate(479 122)"><path d="M0 -74L64.1 -37L64.1 37L0 74L-64.1 37L-64.1 -37Z" fill="none" stroke="#297EA6" stroke-width="2"></path></g><g transform="translate(866 502)"><path d="M0 -26L22.5 -13L22.5 13L0 26L-22.5 13L-22.5 -13Z" fill="none" stroke="#297EA6" stroke-width="2"></path></g><g transform="translate(681 374)"><path d="M0 -88L76.2 -44L76.2 44L0 88L-76.2 44L-76.2 -44Z" fill="none" stroke="#297EA6" stroke-width="2"></path></g><g transform="translate(119 2)"><path d="M0 -77L66.7 -38.5L66.7 38.5L0 77L-66.7 38.5L-66.7 -38.5Z" fill="none" stroke="#297EA6" stroke-width="2"></path></g><g transform="translate(877 37)"><path d="M0 -74L64.1 -37L64.1 37L0 74L-64.1 37L-64.1 -37Z" fill="none" stroke="#297EA6" stroke-width="2"></path></g><g transform="translate(73 224)"><path d="M0 -54L46.8 -27L46.8 27L0 54L-46.8 27L-46.8 -27Z" fill="none" stroke="#297EA6" stroke-width="2"></path></g><g transform="translate(433 306)"><path d="M0 -25L21.7 -12.5L21.7 12.5L0 25L-21.7 12.5L-21.7 -12.5Z" fill="none" stroke="#297EA6" stroke-width="2"></path></g><g transform="translate(269 151)"><path d="M0 -22L19.1 -11L19.1 11L0 22L-19.1 11L-19.1 -11Z" fill="none" stroke="#297EA6" stroke-width="2"></path></g><g transform="translate(714 156)"><path d="M0 -70L60.6 -35L60.6 35L0 70L-60.6 35L-60.6 -35Z" fill="none" stroke="#297EA6" stroke-width="2"></path></g><g transform="translate(690 563)"><path d="M0 -90L77.9 -45L77.9 45L0 90L-77.9 45L-77.9 -45Z" fill="none" stroke="#297EA6" stroke-width="2"></path></g><g transform="translate(239 587)"><path d="M0 -49L42.4 -24.5L42.4 24.5L0 49L-42.4 24.5L-42.4 -24.5Z" fill="none" stroke="#297EA6" stroke-width="2"></path></g><g transform="translate(31 581)"><path d="M0 -27L23.4 -13.5L23.4 13.5L0 27L-23.4 13.5L-23.4 -13.5Z" fill="none" stroke="#297EA6" stroke-width="2"></path></g></g></svg>