<svg id="visual" viewBox="0 0 900 600" width="900" height="600" xmlns="http://www.w3.org/2000/svg" xmlns:xlink="http://www.w3.org/1999/xlink" version="1.1"><path d="M0 181L13.7 179C27.3 177 54.7 173 82 185C109.3 197 136.7 225 163.8 217C191 209 218 165 245.2 144C272.3 123 299.7 125 327 137C354.3 149 381.7 171 409 185C436.3 199 463.7 205 491 190C518.3 175 545.7 139 573 122C600.3 105 627.7 107 654.8 127C682 147 709 185 736.2 190C763.3 195 790.7 167 818 151C845.3 135 872.7 131 886.3 129L900 127L900 0L886.3 0C872.7 0 845.3 0 818 0C790.7 0 763.3 0 736.2 0C709 0 682 0 654.8 0C627.7 0 600.3 0 573 0C545.7 0 518.3 0 491 0C463.7 0 436.3 0 409 0C381.7 0 354.3 0 327 0C299.7 0 272.3 0 245.2 0C218 0 191 0 163.8 0C136.7 0 109.3 0 82 0C54.7 0 27.3 0 13.7 0L0 0Z" fill="#d972ff"></path><path d="M0 325L13.7 332C27.3 339 54.7 353 82 360C109.3 367 136.7 367 163.8 360C191 353 218 339 245.2 337C272.3 335 299.7 345 327 346C354.3 347 381.7 339 409 339C436.3 339 463.7 347 491 348C518.3 349 545.7 343 573 336C600.3 329 627.7 321 654.8 321C682 321 709 329 736.2 339C763.3 349 790.7 361 818 372C845.3 383 872.7 393 886.3 398L900 403L900 125L886.3 127C872.7 129 845.3 133 818 149C790.7 165 763.3 193 736.2 188C709 183 682 145 654.8 125C627.7 105 600.3 103 573 120C545.7 137 518.3 173 491 188C463.7 203 436.3 197 409 183C381.7 169 354.3 147 327 135C299.7 123 272.3 121 245.2 142C218 163 191 207 163.8 215C136.7 223 109.3 195 82 183C54.7 171 27.3 175 13.7 177L0 179Z" fill="#ce4cff"></path><path d="M0 397L13.7 409C27.3 421 54.7 445 82 459C109.3 473 136.7 477 163.8 469C191 461 218 441 245.2 439C272.3 437 299.7 453 327 452C354.3 451 381.7 433 409 435C436.3 437 463.7 459 491 472C518.3 485 545.7 489 573 475C600.3 461 627.7 429 654.8 425C682 421 709 445 736.2 449C763.3 453 790.7 437 818 435C845.3 433 872.7 445 886.3 451L900 457L900 401L886.3 396C872.7 391 845.3 381 818 370C790.7 359 763.3 347 736.2 337C709 327 682 319 654.8 319C627.7 319 600.3 327 573 334C545.7 341 518.3 347 491 346C463.7 345 436.3 337 409 337C381.7 337 354.3 345 327 344C299.7 343 272.3 333 245.2 335C218 337 191 351 163.8 358C136.7 365 109.3 365 82 358C54.7 351 27.3 337 13.7 330L0 323Z" fill="#c100ff"></path><path d="M0 517L13.7 520C27.3 523 54.7 529 82 532C109.3 535 136.7 535 163.8 538C191 541 218 547 245.2 544C272.3 541 299.7 529 327 520C354.3 511 381.7 505 409 506C436.3 507 463.7 515 491 523C518.3 531 545.7 539 573 538C600.3 537 627.7 527 654.8 529C682 531 709 545 736.2 542C763.3 539 790.7 519 818 517C845.3 515 872.7 531 886.3 539L900 547L900 455L886.3 449C872.7 443 845.3 431 818 433C790.7 435 763.3 451 736.2 447C709 443 682 419 654.8 423C627.7 427 600.3 459 573 473C545.7 487 518.3 483 491 470C463.7 457 436.3 435 409 433C381.7 431 354.3 449 327 450C299.7 451 272.3 435 245.2 437C218 439 191 459 163.8 467C136.7 475 109.3 471 82 457C54.7 443 27.3 419 13.7 407L0 395Z" fill="#a700dc"></path><path d="M0 601L13.7 601C27.3 601 54.7 601 82 601C109.3 601 136.7 601 163.8 601C191 601 218 601 245.2 601C272.3 601 299.7 601 327 601C354.3 601 381.7 601 409 601C436.3 601 463.7 601 491 601C518.3 601 545.7 601 573 601C600.3 601 627.7 601 654.8 601C682 601 709 601 736.2 601C763.3 601 790.7 601 818 601C845.3 601 872.7 601 886.3 601L900 601L900 545L886.3 537C872.7 529 845.3 513 818 515C790.7 517 763.3 537 736.2 540C709 543 682 529 654.8 527C627.7 525 600.3 535 573 536C545.7 537 518.3 529 491 521C463.7 513 436.3 505 409 504C381.7 503 354.3 509 327 518C299.7 527 272.3 539 245.2 542C218 545 191 539 163.8 536C136.7 533 109.3 533 82 530C54.7 527 27.3 521 13.7 518L0 515Z" fill="#8e00ba"></path></svg>